<mxfile host="app.diagrams.net" agent="Mozilla/5.0 (Windows NT 10.0; Win64; x64) AppleWebKit/537.36 (KHTML, like Gecko) Chrome/131.0.0.0 Safari/537.36" version="25.0.0" pages="5">
  <diagram name="Activity Diagram" id="zkVvHLpgUojK9w4qj_RJ">
    <mxGraphModel dx="1009" dy="643" grid="1" gridSize="10" guides="1" tooltips="1" connect="1" arrows="1" fold="1" page="1" pageScale="1" pageWidth="827" pageHeight="1169" math="0" shadow="0">
      <root>
        <mxCell id="0" />
        <mxCell id="1" parent="0" />
        <mxCell id="Uh58odkdpP5MErbV-EsC-1" value="Patient arrives for registration" style="rounded=1;whiteSpace=wrap;arcSize=50;strokeWidth=2;" vertex="1" parent="1">
          <mxGeometry x="316" y="210" width="159" height="51" as="geometry" />
        </mxCell>
        <mxCell id="Uh58odkdpP5MErbV-EsC-2" value="Nurse welcomes and collects information" style="whiteSpace=wrap;strokeWidth=2;" vertex="1" parent="1">
          <mxGeometry x="292" y="311" width="206" height="66" as="geometry" />
        </mxCell>
        <mxCell id="Uh58odkdpP5MErbV-EsC-3" value="Assign a doctor" style="whiteSpace=wrap;strokeWidth=2;" vertex="1" parent="1">
          <mxGeometry x="310" y="427" width="170" height="48" as="geometry" />
        </mxCell>
        <mxCell id="Uh58odkdpP5MErbV-EsC-4" value="Perform medical examination/treatment" style="whiteSpace=wrap;strokeWidth=2;" vertex="1" parent="1">
          <mxGeometry x="280" y="525" width="230" height="66" as="geometry" />
        </mxCell>
        <mxCell id="Uh58odkdpP5MErbV-EsC-5" value="Complete payment" style="whiteSpace=wrap;strokeWidth=2;" vertex="1" parent="1">
          <mxGeometry x="297" y="641" width="196" height="48" as="geometry" />
        </mxCell>
        <mxCell id="Uh58odkdpP5MErbV-EsC-6" value="Update medical history" style="whiteSpace=wrap;strokeWidth=2;" vertex="1" parent="1">
          <mxGeometry x="281" y="740" width="228" height="48" as="geometry" />
        </mxCell>
        <mxCell id="Uh58odkdpP5MErbV-EsC-7" value="End" style="rounded=1;whiteSpace=wrap;arcSize=50;strokeWidth=2;" vertex="1" parent="1">
          <mxGeometry x="370" y="838" width="50" height="33" as="geometry" />
        </mxCell>
        <mxCell id="Uh58odkdpP5MErbV-EsC-8" value="" style="curved=1;startArrow=none;endArrow=block;exitX=0.5;exitY=1;entryX=0.5;entryY=0;rounded=0;" edge="1" parent="1" source="Uh58odkdpP5MErbV-EsC-1" target="Uh58odkdpP5MErbV-EsC-2">
          <mxGeometry relative="1" as="geometry">
            <Array as="points" />
          </mxGeometry>
        </mxCell>
        <mxCell id="Uh58odkdpP5MErbV-EsC-9" value="" style="curved=1;startArrow=none;endArrow=block;exitX=0.5;exitY=1;entryX=0.5;entryY=0;rounded=0;" edge="1" parent="1" source="Uh58odkdpP5MErbV-EsC-2" target="Uh58odkdpP5MErbV-EsC-3">
          <mxGeometry relative="1" as="geometry">
            <Array as="points" />
          </mxGeometry>
        </mxCell>
        <mxCell id="Uh58odkdpP5MErbV-EsC-10" value="" style="curved=1;startArrow=none;endArrow=block;exitX=0.5;exitY=1.01;entryX=0.5;entryY=0.01;rounded=0;" edge="1" parent="1" source="Uh58odkdpP5MErbV-EsC-3" target="Uh58odkdpP5MErbV-EsC-4">
          <mxGeometry relative="1" as="geometry">
            <Array as="points" />
          </mxGeometry>
        </mxCell>
        <mxCell id="Uh58odkdpP5MErbV-EsC-11" value="" style="curved=1;startArrow=none;endArrow=block;exitX=0.5;exitY=1.01;entryX=0.5;entryY=0.01;rounded=0;" edge="1" parent="1" source="Uh58odkdpP5MErbV-EsC-4" target="Uh58odkdpP5MErbV-EsC-5">
          <mxGeometry relative="1" as="geometry">
            <Array as="points" />
          </mxGeometry>
        </mxCell>
        <mxCell id="Uh58odkdpP5MErbV-EsC-12" value="" style="curved=1;startArrow=none;endArrow=block;exitX=0.5;exitY=1.02;entryX=0.5;entryY=0;rounded=0;" edge="1" parent="1" source="Uh58odkdpP5MErbV-EsC-5" target="Uh58odkdpP5MErbV-EsC-6">
          <mxGeometry relative="1" as="geometry">
            <Array as="points" />
          </mxGeometry>
        </mxCell>
        <mxCell id="Uh58odkdpP5MErbV-EsC-13" value="" style="curved=1;startArrow=none;endArrow=block;exitX=0.5;exitY=1;entryX=0.5;entryY=0.01;rounded=0;" edge="1" parent="1" source="Uh58odkdpP5MErbV-EsC-6" target="Uh58odkdpP5MErbV-EsC-7">
          <mxGeometry relative="1" as="geometry">
            <Array as="points" />
          </mxGeometry>
        </mxCell>
      </root>
    </mxGraphModel>
  </diagram>
  <diagram id="LW_we0DgX697fdHx3GdG" name="Sequence Diagram">
    <mxGraphModel dx="1009" dy="643" grid="0" gridSize="10" guides="1" tooltips="1" connect="1" arrows="1" fold="1" page="0" pageScale="1" pageWidth="827" pageHeight="1169" math="0" shadow="0">
      <root>
        <mxCell id="0" />
        <mxCell id="1" parent="0" />
        <mxCell id="WcnWPGB4Tc75HjBpopav-1" value="Patient" style="shape=umlLifeline;perimeter=lifelinePerimeter;whiteSpace=wrap;container=1;dropTarget=0;collapsible=0;recursiveResize=0;outlineConnect=0;portConstraint=eastwest;newEdgeStyle={&quot;edgeStyle&quot;:&quot;elbowEdgeStyle&quot;,&quot;elbow&quot;:&quot;vertical&quot;,&quot;curved&quot;:0,&quot;rounded&quot;:0};size=65;" vertex="1" parent="1">
          <mxGeometry x="20" y="20" width="150" height="538" as="geometry" />
        </mxCell>
        <mxCell id="WcnWPGB4Tc75HjBpopav-2" value="Nurse" style="shape=umlLifeline;perimeter=lifelinePerimeter;whiteSpace=wrap;container=1;dropTarget=0;collapsible=0;recursiveResize=0;outlineConnect=0;portConstraint=eastwest;newEdgeStyle={&quot;edgeStyle&quot;:&quot;elbowEdgeStyle&quot;,&quot;elbow&quot;:&quot;vertical&quot;,&quot;curved&quot;:0,&quot;rounded&quot;:0};size=65;" vertex="1" parent="1">
          <mxGeometry x="262" y="20" width="150" height="538" as="geometry" />
        </mxCell>
        <mxCell id="WcnWPGB4Tc75HjBpopav-3" value="Doctor" style="shape=umlLifeline;perimeter=lifelinePerimeter;whiteSpace=wrap;container=1;dropTarget=0;collapsible=0;recursiveResize=0;outlineConnect=0;portConstraint=eastwest;newEdgeStyle={&quot;edgeStyle&quot;:&quot;elbowEdgeStyle&quot;,&quot;elbow&quot;:&quot;vertical&quot;,&quot;curved&quot;:0,&quot;rounded&quot;:0};size=65;" vertex="1" parent="1">
          <mxGeometry x="494" y="20" width="150" height="538" as="geometry" />
        </mxCell>
        <mxCell id="WcnWPGB4Tc75HjBpopav-4" value="System" style="shape=umlLifeline;perimeter=lifelinePerimeter;whiteSpace=wrap;container=1;dropTarget=0;collapsible=0;recursiveResize=0;outlineConnect=0;portConstraint=eastwest;newEdgeStyle={&quot;edgeStyle&quot;:&quot;elbowEdgeStyle&quot;,&quot;elbow&quot;:&quot;vertical&quot;,&quot;curved&quot;:0,&quot;rounded&quot;:0};size=65;" vertex="1" parent="1">
          <mxGeometry x="868" y="20" width="150" height="538" as="geometry" />
        </mxCell>
        <mxCell id="WcnWPGB4Tc75HjBpopav-5" value="Register for examination" style="verticalAlign=bottom;edgeStyle=elbowEdgeStyle;elbow=vertical;curved=0;rounded=0;endArrow=block;fontSize=12;startSize=8;endSize=8;" edge="1" parent="1" source="WcnWPGB4Tc75HjBpopav-1" target="WcnWPGB4Tc75HjBpopav-2">
          <mxGeometry relative="1" as="geometry">
            <Array as="points">
              <mxPoint x="225" y="129" />
            </Array>
          </mxGeometry>
        </mxCell>
        <mxCell id="WcnWPGB4Tc75HjBpopav-6" value="Enter patient information" style="verticalAlign=bottom;edgeStyle=elbowEdgeStyle;elbow=vertical;curved=0;rounded=0;endArrow=block;fontSize=12;startSize=8;endSize=8;" edge="1" parent="1" source="WcnWPGB4Tc75HjBpopav-2" target="WcnWPGB4Tc75HjBpopav-4">
          <mxGeometry relative="1" as="geometry">
            <Array as="points">
              <mxPoint x="649" y="183" />
            </Array>
          </mxGeometry>
        </mxCell>
        <mxCell id="WcnWPGB4Tc75HjBpopav-7" value="Confirm information" style="verticalAlign=bottom;edgeStyle=elbowEdgeStyle;elbow=vertical;curved=0;rounded=0;dashed=1;dashPattern=2 3;endArrow=block;fontSize=12;startSize=8;endSize=8;" edge="1" parent="1" source="WcnWPGB4Tc75HjBpopav-4" target="WcnWPGB4Tc75HjBpopav-2">
          <mxGeometry relative="1" as="geometry">
            <Array as="points">
              <mxPoint x="652" y="237" />
            </Array>
          </mxGeometry>
        </mxCell>
        <mxCell id="WcnWPGB4Tc75HjBpopav-8" value="Forward patient details" style="verticalAlign=bottom;edgeStyle=elbowEdgeStyle;elbow=vertical;curved=0;rounded=0;endArrow=block;fontSize=12;startSize=8;endSize=8;" edge="1" parent="1" source="WcnWPGB4Tc75HjBpopav-2" target="WcnWPGB4Tc75HjBpopav-3">
          <mxGeometry relative="1" as="geometry">
            <Array as="points">
              <mxPoint x="462" y="291" />
            </Array>
          </mxGeometry>
        </mxCell>
        <mxCell id="WcnWPGB4Tc75HjBpopav-9" value="Enter examination results and prescriptions" style="verticalAlign=bottom;edgeStyle=elbowEdgeStyle;elbow=vertical;curved=0;rounded=0;endArrow=block;fontSize=12;startSize=8;endSize=8;" edge="1" parent="1" source="WcnWPGB4Tc75HjBpopav-3" target="WcnWPGB4Tc75HjBpopav-4">
          <mxGeometry relative="1" as="geometry">
            <Array as="points">
              <mxPoint x="765" y="345" />
            </Array>
          </mxGeometry>
        </mxCell>
        <mxCell id="WcnWPGB4Tc75HjBpopav-10" value="Save prescription information" style="verticalAlign=bottom;edgeStyle=elbowEdgeStyle;elbow=vertical;curved=0;rounded=0;dashed=1;dashPattern=2 3;endArrow=block;fontSize=12;startSize=8;endSize=8;" edge="1" parent="1" source="WcnWPGB4Tc75HjBpopav-4" target="WcnWPGB4Tc75HjBpopav-3">
          <mxGeometry relative="1" as="geometry">
            <Array as="points">
              <mxPoint x="768" y="399" />
            </Array>
          </mxGeometry>
        </mxCell>
        <mxCell id="WcnWPGB4Tc75HjBpopav-11" value="Provide prescription" style="verticalAlign=bottom;edgeStyle=elbowEdgeStyle;elbow=vertical;curved=0;rounded=0;endArrow=block;fontSize=12;startSize=8;endSize=8;" edge="1" parent="1" source="WcnWPGB4Tc75HjBpopav-3" target="WcnWPGB4Tc75HjBpopav-1">
          <mxGeometry relative="1" as="geometry">
            <Array as="points">
              <mxPoint x="344" y="453" />
            </Array>
          </mxGeometry>
        </mxCell>
      </root>
    </mxGraphModel>
  </diagram>
  <diagram id="JF6tXCiPhhIUUHlvgSJl" name="State Diagram">
    <mxGraphModel dx="1009" dy="643" grid="0" gridSize="10" guides="1" tooltips="1" connect="1" arrows="1" fold="1" page="0" pageScale="1" pageWidth="827" pageHeight="1169" math="0" shadow="0">
      <root>
        <mxCell id="0" />
        <mxCell id="1" parent="0" />
        <mxCell id="lIAXsI9dkXndsuvwmlZR-1" value="" style="ellipse;fillColor=strokeColor;" vertex="1" parent="1">
          <mxGeometry x="111" y="20" width="14" height="14" as="geometry" />
        </mxCell>
        <mxCell id="lIAXsI9dkXndsuvwmlZR-2" value="Registration" style="rounded=1;arcSize=40;strokeWidth=2" vertex="1" parent="1">
          <mxGeometry x="67" y="84" width="102" height="34" as="geometry" />
        </mxCell>
        <mxCell id="lIAXsI9dkXndsuvwmlZR-3" value="Waiting_for_Examination" style="rounded=1;arcSize=40;strokeWidth=2" vertex="1" parent="1">
          <mxGeometry x="20" y="168" width="196" height="34" as="geometry" />
        </mxCell>
        <mxCell id="lIAXsI9dkXndsuvwmlZR-4" value="Undergoing_Examination" style="rounded=1;arcSize=40;strokeWidth=2" vertex="1" parent="1">
          <mxGeometry x="21" y="253" width="194" height="34" as="geometry" />
        </mxCell>
        <mxCell id="lIAXsI9dkXndsuvwmlZR-5" value="Prescription_Given" style="rounded=1;arcSize=40;strokeWidth=2" vertex="1" parent="1">
          <mxGeometry x="43" y="337" width="151" height="34" as="geometry" />
        </mxCell>
        <mxCell id="lIAXsI9dkXndsuvwmlZR-6" value="Payment" style="rounded=1;arcSize=40;strokeWidth=2" vertex="1" parent="1">
          <mxGeometry x="79" y="422" width="78" height="34" as="geometry" />
        </mxCell>
        <mxCell id="lIAXsI9dkXndsuvwmlZR-7" value="Discharged" style="rounded=1;arcSize=40;strokeWidth=2" vertex="1" parent="1">
          <mxGeometry x="71" y="506" width="94" height="34" as="geometry" />
        </mxCell>
        <mxCell id="lIAXsI9dkXndsuvwmlZR-8" value="" style="ellipse;shape=endState;fillColor=strokeColor;" vertex="1" parent="1">
          <mxGeometry x="111" y="590" width="14" height="14" as="geometry" />
        </mxCell>
        <mxCell id="lIAXsI9dkXndsuvwmlZR-9" value="" style="curved=1;startArrow=none;;exitX=0.5;exitY=1;entryX=0.5;entryY=0;rounded=0;fontSize=12;startSize=8;endSize=8;" edge="1" parent="1" source="lIAXsI9dkXndsuvwmlZR-1" target="lIAXsI9dkXndsuvwmlZR-2">
          <mxGeometry relative="1" as="geometry">
            <Array as="points" />
          </mxGeometry>
        </mxCell>
        <mxCell id="lIAXsI9dkXndsuvwmlZR-10" value="" style="curved=1;startArrow=none;;exitX=0.5;exitY=1.01;entryX=0.5;entryY=0.01;rounded=0;fontSize=12;startSize=8;endSize=8;" edge="1" parent="1" source="lIAXsI9dkXndsuvwmlZR-2" target="lIAXsI9dkXndsuvwmlZR-3">
          <mxGeometry relative="1" as="geometry">
            <Array as="points" />
          </mxGeometry>
        </mxCell>
        <mxCell id="lIAXsI9dkXndsuvwmlZR-11" value="" style="curved=1;startArrow=none;;exitX=0.5;exitY=1.02;entryX=0.5;entryY=-0.01;rounded=0;fontSize=12;startSize=8;endSize=8;" edge="1" parent="1" source="lIAXsI9dkXndsuvwmlZR-3" target="lIAXsI9dkXndsuvwmlZR-4">
          <mxGeometry relative="1" as="geometry">
            <Array as="points" />
          </mxGeometry>
        </mxCell>
        <mxCell id="lIAXsI9dkXndsuvwmlZR-12" value="" style="curved=1;startArrow=none;;exitX=0.5;exitY=1.01;entryX=0.5;entryY=0.01;rounded=0;fontSize=12;startSize=8;endSize=8;" edge="1" parent="1" source="lIAXsI9dkXndsuvwmlZR-4" target="lIAXsI9dkXndsuvwmlZR-5">
          <mxGeometry relative="1" as="geometry">
            <Array as="points" />
          </mxGeometry>
        </mxCell>
        <mxCell id="lIAXsI9dkXndsuvwmlZR-13" value="" style="curved=1;startArrow=none;;exitX=0.5;exitY=1.02;entryX=0.5;entryY=-0.01;rounded=0;fontSize=12;startSize=8;endSize=8;" edge="1" parent="1" source="lIAXsI9dkXndsuvwmlZR-5" target="lIAXsI9dkXndsuvwmlZR-6">
          <mxGeometry relative="1" as="geometry">
            <Array as="points" />
          </mxGeometry>
        </mxCell>
        <mxCell id="lIAXsI9dkXndsuvwmlZR-14" value="" style="curved=1;startArrow=none;;exitX=0.5;exitY=1;entryX=0.5;entryY=0;rounded=0;fontSize=12;startSize=8;endSize=8;" edge="1" parent="1" source="lIAXsI9dkXndsuvwmlZR-6" target="lIAXsI9dkXndsuvwmlZR-7">
          <mxGeometry relative="1" as="geometry">
            <Array as="points" />
          </mxGeometry>
        </mxCell>
        <mxCell id="lIAXsI9dkXndsuvwmlZR-15" value="" style="curved=1;startArrow=none;;exitX=0.5;exitY=1.01;entryX=0.5;entryY=0.03;rounded=0;fontSize=12;startSize=8;endSize=8;" edge="1" parent="1" source="lIAXsI9dkXndsuvwmlZR-7" target="lIAXsI9dkXndsuvwmlZR-8">
          <mxGeometry relative="1" as="geometry">
            <Array as="points" />
          </mxGeometry>
        </mxCell>
      </root>
    </mxGraphModel>
  </diagram>
  <diagram id="RZ4cwas6okGJdNC4wofu" name="Use-case">
    <mxGraphModel dx="1135" dy="585" grid="0" gridSize="10" guides="1" tooltips="1" connect="1" arrows="1" fold="1" page="0" pageScale="1" pageWidth="827" pageHeight="1169" math="0" shadow="0">
      <root>
        <mxCell id="0" />
        <mxCell id="1" parent="0" />
        <UserObject label="" plantUmlData="{&#xa;  &quot;data&quot;: &quot;@startuml\nactor Patient\n\nPatient --&gt; (Register for Examination)\nPatient --&gt; (View Medical History)\n\n@enduml&quot;,&#xa;  &quot;format&quot;: &quot;svg&quot;&#xa;}" id="pxhKRSdxKXz-_Y6Tn8Q8-43">
          <mxCell style="shape=image;noLabel=1;verticalAlign=top;aspect=fixed;imageAspect=0;image=data:image/svg+xml,PD94bWwgdmVyc2lvbj0iMS4wIiBlbmNvZGluZz0idXMtYXNjaWkiIHN0YW5kYWxvbmU9Im5vIj8+PHN2ZyB4bWxucz0iaHR0cDovL3d3dy53My5vcmcvMjAwMC9zdmciIHhtbG5zOnhsaW5rPSJodHRwOi8vd3d3LnczLm9yZy8xOTk5L3hsaW5rIiBjb250ZW50U3R5bGVUeXBlPSJ0ZXh0L2NzcyIgaGVpZ2h0PSIxOTFweCIgcHJlc2VydmVBc3BlY3RSYXRpbz0ibm9uZSIgc3R5bGU9IndpZHRoOjQyNXB4O2hlaWdodDoxOTFweDtiYWNrZ3JvdW5kOiNGRkZGRkY7IiB2ZXJzaW9uPSIxLjEiIHZpZXdCb3g9IjAgMCA0MjUgMTkxIiB3aWR0aD0iNDI1cHgiIHpvb21BbmRQYW49Im1hZ25pZnkiPjxkZWZzLz48Zz48IS0tZW50aXR5IFBhdGllbnQtLT48ZyBpZD0iZWxlbV9QYXRpZW50Ij48ZWxsaXBzZSBjeD0iMjE5IiBjeT0iMTQiIGZpbGw9IiNGMUYxRjEiIHJ4PSI4IiByeT0iOCIgc3R5bGU9InN0cm9rZTojMTgxODE4O3N0cm9rZS13aWR0aDowLjU7Ii8+PHBhdGggZD0iTTIxOSwyMiBMMjE5LDQ5IE0yMDYsMzAgTDIzMiwzMCBNMjE5LDQ5IEwyMDYsNjQgTTIxOSw0OSBMMjMyLDY0ICIgZmlsbD0ibm9uZSIgc3R5bGU9InN0cm9rZTojMTgxODE4O3N0cm9rZS13aWR0aDowLjU7Ii8+PHRleHQgZmlsbD0iIzAwMDAwMCIgZm9udC1mYW1pbHk9InNhbnMtc2VyaWYiIGZvbnQtc2l6ZT0iMTQiIGxlbmd0aEFkanVzdD0ic3BhY2luZyIgdGV4dExlbmd0aD0iNDkiIHg9IjE5NC41IiB5PSI3OC43MzQ0Ij5QYXRpZW50PC90ZXh0PjwvZz48ZyBpZD0iZWxlbV9SZWdpc3RlciBmb3IgRXhhbWluYXRpb24iPjxlbGxpcHNlIGN4PSIxMDYuOTQ2OCIgY3k9IjE2My4wODk0IiBmaWxsPSIjRjFGMUYxIiByeD0iMTAwLjk0NjgiIHJ5PSIyMi41ODk0IiBzdHlsZT0ic3Ryb2tlOiMxODE4MTg7c3Ryb2tlLXdpZHRoOjAuNTsiLz48dGV4dCBmaWxsPSIjMDAwMDAwIiBmb250LWZhbWlseT0ic2Fucy1zZXJpZiIgZm9udC1zaXplPSIxNCIgbGVuZ3RoQWRqdXN0PSJzcGFjaW5nIiB0ZXh0TGVuZ3RoPSIxNjkiIHg9IjIyLjQ0NjgiIHk9IjE2Ni44MzE1Ij5SZWdpc3RlciBmb3IgRXhhbWluYXRpb248L3RleHQ+PC9nPjxnIGlkPSJlbGVtX1ZpZXcgTWVkaWNhbCBIaXN0b3J5Ij48ZWxsaXBzZSBjeD0iMzMxLjE3OTYiIGN5PSIxNjMuMDM1OSIgZmlsbD0iI0YxRjFGMSIgcng9Ijg4LjE3OTYiIHJ5PSIyMC4wMzU5IiBzdHlsZT0ic3Ryb2tlOiMxODE4MTg7c3Ryb2tlLXdpZHRoOjAuNTsiLz48dGV4dCBmaWxsPSIjMDAwMDAwIiBmb250LWZhbWlseT0ic2Fucy1zZXJpZiIgZm9udC1zaXplPSIxNCIgbGVuZ3RoQWRqdXN0PSJzcGFjaW5nIiB0ZXh0TGVuZ3RoPSIxNDEiIHg9IjI2MC42Nzk2IiB5PSIxNjYuNzc4MSI+VmlldyBNZWRpY2FsIEhpc3Rvcnk8L3RleHQ+PC9nPjwhLS1saW5rIFBhdGllbnQgdG8gUmVnaXN0ZXIgZm9yIEV4YW1pbmF0aW9uLS0+PGcgaWQ9ImxpbmtfUGF0aWVudF9SZWdpc3RlciBmb3IgRXhhbWluYXRpb24iPjxwYXRoIGQ9Ik0xOTQuNDIsNjkuOSBDMTc0LjIsOTEuMiAxNTAuMDI5NSwxMTYuNjU3MiAxMzEuMTY5NSwxMzYuNTM3MiAiIGZpbGw9Im5vbmUiIGlkPSJQYXRpZW50LXRvLVJlZ2lzdGVyIGZvciBFeGFtaW5hdGlvbiIgc3R5bGU9InN0cm9rZTojMTgxODE4O3N0cm9rZS13aWR0aDoxLjA7Ii8+PHBvbHlnb24gZmlsbD0iIzE4MTgxOCIgcG9pbnRzPSIxMjcuMDQsMTQwLjg5LDEzNi4xMzYxLDEzNy4xMTM3LDEzMC40ODEzLDEzNy4yNjI2LDEzMC4zMzI0LDEzMS42MDc3LDEyNy4wNCwxNDAuODkiIHN0eWxlPSJzdHJva2U6IzE4MTgxODtzdHJva2Utd2lkdGg6MS4wOyIvPjwvZz48IS0tbGluayBQYXRpZW50IHRvIFZpZXcgTWVkaWNhbCBIaXN0b3J5LS0+PGcgaWQ9ImxpbmtfUGF0aWVudF9WaWV3IE1lZGljYWwgSGlzdG9yeSI+PHBhdGggZD0iTTI0My41OCw2OS45IEMyNjQuNTcsOTIuMDEgMjkwLjEzOTcsMTE4Ljk0NzkgMzA4Ljk0OTcsMTM4Ljc2NzkgIiBmaWxsPSJub25lIiBpZD0iUGF0aWVudC10by1WaWV3IE1lZGljYWwgSGlzdG9yeSIgc3R5bGU9InN0cm9rZTojMTgxODE4O3N0cm9rZS13aWR0aDoxLjA7Ii8+PHBvbHlnb24gZmlsbD0iIzE4MTgxOCIgcG9pbnRzPSIzMTMuMDgsMTQzLjEyLDMwOS43ODU5LDEzMy44MzgzLDMwOS42MzgxLDEzOS40OTMzLDMwMy45ODMyLDEzOS4zNDU0LDMxMy4wOCwxNDMuMTIiIHN0eWxlPSJzdHJva2U6IzE4MTgxODtzdHJva2Utd2lkdGg6MS4wOyIvPjwvZz48IS0tU1JDPVtJcW1rb0l6STI0V2lvS3BEQS03WVdaOEtUN05qNTNJMktqQ3BZcWpJWW5KSVc0ZlNBbjlwQ19FMHFsYnZjZ1pBbVo5Sm9uTHlLckNvYW5EcDUzbzBFbEFCQVpLMV0tLT48L2c+PC9zdmc+;" vertex="1" parent="1">
            <mxGeometry x="301" y="341" width="425" height="191" as="geometry" />
          </mxCell>
        </UserObject>
        <UserObject label="" plantUmlData="{&#xa;  &quot;data&quot;: &quot;@startuml\nactor Nurse\n\nNurse --&gt; (Collect Patient Information)\nNurse --&gt; (Provide Initial Care)\nNurse --&gt; (Assist Doctor)\n\n\n@enduml&quot;,&#xa;  &quot;format&quot;: &quot;svg&quot;&#xa;}" id="pxhKRSdxKXz-_Y6Tn8Q8-44">
          <mxCell style="shape=image;noLabel=1;verticalAlign=top;aspect=fixed;imageAspect=0;image=data:image/svg+xml,PD94bWwgdmVyc2lvbj0iMS4wIiBlbmNvZGluZz0idXMtYXNjaWkiIHN0YW5kYWxvbmU9Im5vIj8+PHN2ZyB4bWxucz0iaHR0cDovL3d3dy53My5vcmcvMjAwMC9zdmciIHhtbG5zOnhsaW5rPSJodHRwOi8vd3d3LnczLm9yZy8xOTk5L3hsaW5rIiBjb250ZW50U3R5bGVUeXBlPSJ0ZXh0L2NzcyIgaGVpZ2h0PSIxOTVweCIgcHJlc2VydmVBc3BlY3RSYXRpbz0ibm9uZSIgc3R5bGU9IndpZHRoOjYxMXB4O2hlaWdodDoxOTVweDtiYWNrZ3JvdW5kOiNGRkZGRkY7IiB2ZXJzaW9uPSIxLjEiIHZpZXdCb3g9IjAgMCA2MTEgMTk1IiB3aWR0aD0iNjExcHgiIHpvb21BbmRQYW49Im1hZ25pZnkiPjxkZWZzLz48Zz48IS0tZW50aXR5IE51cnNlLS0+PGcgaWQ9ImVsZW1fTnVyc2UiPjxlbGxpcHNlIGN4PSIzNDkuNSIgY3k9IjE0IiBmaWxsPSIjRjFGMUYxIiByeD0iOCIgcnk9IjgiIHN0eWxlPSJzdHJva2U6IzE4MTgxODtzdHJva2Utd2lkdGg6MC41OyIvPjxwYXRoIGQ9Ik0zNDkuNSwyMiBMMzQ5LjUsNDkgTTMzNi41LDMwIEwzNjIuNSwzMCBNMzQ5LjUsNDkgTDMzNi41LDY0IE0zNDkuNSw0OSBMMzYyLjUsNjQgIiBmaWxsPSJub25lIiBzdHlsZT0ic3Ryb2tlOiMxODE4MTg7c3Ryb2tlLXdpZHRoOjAuNTsiLz48dGV4dCBmaWxsPSIjMDAwMDAwIiBmb250LWZhbWlseT0ic2Fucy1zZXJpZiIgZm9udC1zaXplPSIxNCIgbGVuZ3RoQWRqdXN0PSJzcGFjaW5nIiB0ZXh0TGVuZ3RoPSIzNSIgeD0iMzMyIiB5PSI3OC43MzQ0Ij5OdXJzZTwvdGV4dD48L2c+PGcgaWQ9ImVsZW1fQ29sbGVjdCBQYXRpZW50IEluZm9ybWF0aW9uIj48ZWxsaXBzZSBjeD0iMTE2LjcyMzQiIGN5PSIxNjUuMDQ0NyIgZmlsbD0iI0YxRjFGMSIgcng9IjExMC43MjM0IiByeT0iMjQuNTQ0NyIgc3R5bGU9InN0cm9rZTojMTgxODE4O3N0cm9rZS13aWR0aDowLjU7Ii8+PHRleHQgZmlsbD0iIzAwMDAwMCIgZm9udC1mYW1pbHk9InNhbnMtc2VyaWYiIGZvbnQtc2l6ZT0iMTQiIGxlbmd0aEFkanVzdD0ic3BhY2luZyIgdGV4dExlbmd0aD0iMTkwIiB4PSIyMS43MjM0IiB5PSIxNjguNzg2OSI+Q29sbGVjdCBQYXRpZW50IEluZm9ybWF0aW9uPC90ZXh0PjwvZz48ZyBpZD0iZWxlbV9Qcm92aWRlIEluaXRpYWwgQ2FyZSI+PGVsbGlwc2UgY3g9IjM0OS43MzA5IiBjeT0iMTY0Ljk0NjIiIGZpbGw9IiNGMUYxRjEiIHJ4PSI4Ny43MzA5IiByeT0iMTkuOTQ2MiIgc3R5bGU9InN0cm9rZTojMTgxODE4O3N0cm9rZS13aWR0aDowLjU7Ii8+PHRleHQgZmlsbD0iIzAwMDAwMCIgZm9udC1mYW1pbHk9InNhbnMtc2VyaWYiIGZvbnQtc2l6ZT0iMTQiIGxlbmd0aEFkanVzdD0ic3BhY2luZyIgdGV4dExlbmd0aD0iMTQwIiB4PSIyNzkuNzMwOSIgeT0iMTY4LjY4ODQiPlByb3ZpZGUgSW5pdGlhbCBDYXJlPC90ZXh0PjwvZz48ZyBpZD0iZWxlbV9Bc3Npc3QgRG9jdG9yIj48ZWxsaXBzZSBjeD0iNTM4LjY4MzQiIGN5PSIxNjUuMjM2NyIgZmlsbD0iI0YxRjFGMSIgcng9IjY2LjY4MzQiIHJ5PSIxNS43MzY3IiBzdHlsZT0ic3Ryb2tlOiMxODE4MTg7c3Ryb2tlLXdpZHRoOjAuNTsiLz48dGV4dCBmaWxsPSIjMDAwMDAwIiBmb250LWZhbWlseT0ic2Fucy1zZXJpZiIgZm9udC1zaXplPSIxNCIgbGVuZ3RoQWRqdXN0PSJzcGFjaW5nIiB0ZXh0TGVuZ3RoPSI5MSIgeD0iNDkzLjE4MzQiIHk9IjE2OC45Nzg5Ij5Bc3Npc3QgRG9jdG9yPC90ZXh0PjwvZz48IS0tbGluayBOdXJzZSB0byBDb2xsZWN0IFBhdGllbnQgSW5mb3JtYXRpb24tLT48ZyBpZD0ibGlua19OdXJzZV9Db2xsZWN0IFBhdGllbnQgSW5mb3JtYXRpb24iPjxwYXRoIGQ9Ik0zMzEuOTksNTMuMDIgQzI5NS40Nyw3MS44MiAyMTUuNjY0NCwxMTIuOTMzMyAxNjQuMDA0NCwxMzkuNTMzMyAiIGZpbGw9Im5vbmUiIGlkPSJOdXJzZS10by1Db2xsZWN0IFBhdGllbnQgSW5mb3JtYXRpb24iIHN0eWxlPSJzdHJva2U6IzE4MTgxODtzdHJva2Utd2lkdGg6MS4wOyIvPjxwb2x5Z29uIGZpbGw9IiMxODE4MTgiIHBvaW50cz0iMTU4LjY3LDE0Mi4yOCwxNjguNTAyNywxNDEuNzE2MiwxNjMuMTE1MywxMzkuOTkxMSwxNjQuODQwNCwxMzQuNjAzNywxNTguNjcsMTQyLjI4IiBzdHlsZT0ic3Ryb2tlOiMxODE4MTg7c3Ryb2tlLXdpZHRoOjEuMDsiLz48L2c+PCEtLWxpbmsgTnVyc2UgdG8gUHJvdmlkZSBJbml0aWFsIENhcmUtLT48ZyBpZD0ibGlua19OdXJzZV9Qcm92aWRlIEluaXRpYWwgQ2FyZSI+PHBhdGggZD0iTTM0OS41LDgwLjY2IEMzNDkuNSwxMDEuODkgMzQ5LjUsMTIxLjczIDM0OS41LDEzOC45NiAiIGZpbGw9Im5vbmUiIGlkPSJOdXJzZS10by1Qcm92aWRlIEluaXRpYWwgQ2FyZSIgc3R5bGU9InN0cm9rZTojMTgxODE4O3N0cm9rZS13aWR0aDoxLjA7Ii8+PHBvbHlnb24gZmlsbD0iIzE4MTgxOCIgcG9pbnRzPSIzNDkuNSwxNDQuOTYsMzUzLjUsMTM1Ljk2LDM0OS41LDEzOS45NiwzNDUuNSwxMzUuOTYsMzQ5LjUsMTQ0Ljk2IiBzdHlsZT0ic3Ryb2tlOiMxODE4MTg7c3Ryb2tlLXdpZHRoOjEuMDsiLz48L2c+PCEtLWxpbmsgTnVyc2UgdG8gQXNzaXN0IERvY3Rvci0tPjxnIGlkPSJsaW5rX051cnNlX0Fzc2lzdCBEb2N0b3IiPjxwYXRoIGQ9Ik0zNjcuMjgsNTUuMjkgQzQwMi4xMSw3Ny40IDQ3NC4xMjQzLDEyMy4xMzQ2IDUxMS44MjQzLDE0Ny4wNjQ2ICIgZmlsbD0ibm9uZSIgaWQ9Ik51cnNlLXRvLUFzc2lzdCBEb2N0b3IiIHN0eWxlPSJzdHJva2U6IzE4MTgxODtzdHJva2Utd2lkdGg6MS4wOyIvPjxwb2x5Z29uIGZpbGw9IiMxODE4MTgiIHBvaW50cz0iNTE2Ljg5LDE1MC4yOCw1MTEuNDM1MSwxNDIuMDc5Nyw1MTIuNjY4NiwxNDcuNjAwNSw1MDcuMTQ3OSwxNDguODM0LDUxNi44OSwxNTAuMjgiIHN0eWxlPSJzdHJva2U6IzE4MTgxODtzdHJva2Utd2lkdGg6MS4wOyIvPjwvZz48IS0tU1JDPVtJcW1rb0l6SXkyaWpBYXhidVc5SjJoZ3dUV2VRcGxhdkVRZDk5R2UxWUlNUGdOYWIyZnZ2UVZiNWtLMUVWZnVjaWhnMGVsb29wOUhLZTduY0lNUFlaZTlwT2I0Z1lXQjd1a0JDdVg4NWJ0b0dIUGUwXS0tPjwvZz48L3N2Zz4=;" vertex="1" parent="1">
            <mxGeometry x="784" y="341" width="611" height="195" as="geometry" />
          </mxCell>
        </UserObject>
        <UserObject label="" plantUmlData="{&#xa;  &quot;data&quot;: &quot;\n@startuml\nactor Doctor\nDoctor --&gt; (Examine and Treat Patient)\nDoctor --&gt; (Prescribe Medication)\nDoctor --&gt; (Update Patient Records)\n\n\n@enduml&quot;,&#xa;  &quot;format&quot;: &quot;svg&quot;&#xa;}" id="pxhKRSdxKXz-_Y6Tn8Q8-45">
          <mxCell style="shape=image;noLabel=1;verticalAlign=top;aspect=fixed;imageAspect=0;image=data:image/svg+xml,PD94bWwgdmVyc2lvbj0iMS4wIiBlbmNvZGluZz0idXMtYXNjaWkiIHN0YW5kYWxvbmU9Im5vIj8+PHN2ZyB4bWxucz0iaHR0cDovL3d3dy53My5vcmcvMjAwMC9zdmciIHhtbG5zOnhsaW5rPSJodHRwOi8vd3d3LnczLm9yZy8xOTk5L3hsaW5rIiBjb250ZW50U3R5bGVUeXBlPSJ0ZXh0L2NzcyIgaGVpZ2h0PSIxOTJweCIgcHJlc2VydmVBc3BlY3RSYXRpbz0ibm9uZSIgc3R5bGU9IndpZHRoOjY1NHB4O2hlaWdodDoxOTJweDtiYWNrZ3JvdW5kOiNGRkZGRkY7IiB2ZXJzaW9uPSIxLjEiIHZpZXdCb3g9IjAgMCA2NTQgMTkyIiB3aWR0aD0iNjU0cHgiIHpvb21BbmRQYW49Im1hZ25pZnkiPjxkZWZzLz48Zz48IS0tZW50aXR5IERvY3Rvci0tPjxnIGlkPSJlbGVtX0RvY3RvciI+PGVsbGlwc2UgY3g9IjMzNyIgY3k9IjE0IiBmaWxsPSIjRjFGMUYxIiByeD0iOCIgcnk9IjgiIHN0eWxlPSJzdHJva2U6IzE4MTgxODtzdHJva2Utd2lkdGg6MC41OyIvPjxwYXRoIGQ9Ik0zMzcsMjIgTDMzNyw0OSBNMzI0LDMwIEwzNTAsMzAgTTMzNyw0OSBMMzI0LDY0IE0zMzcsNDkgTDM1MCw2NCAiIGZpbGw9Im5vbmUiIHN0eWxlPSJzdHJva2U6IzE4MTgxODtzdHJva2Utd2lkdGg6MC41OyIvPjx0ZXh0IGZpbGw9IiMwMDAwMDAiIGZvbnQtZmFtaWx5PSJzYW5zLXNlcmlmIiBmb250LXNpemU9IjE0IiBsZW5ndGhBZGp1c3Q9InNwYWNpbmciIHRleHRMZW5ndGg9IjQyIiB4PSIzMTYiIHk9Ijc4LjczNDQiPkRvY3RvcjwvdGV4dD48L2c+PGcgaWQ9ImVsZW1fRXhhbWluZSBhbmQgVHJlYXQgUGF0aWVudCI+PGVsbGlwc2UgY3g9IjExMC4xODk1IiBjeT0iMTYzLjczNzkiIGZpbGw9IiNGMUYxRjEiIHJ4PSIxMDQuMTg5NSIgcnk9IjIzLjIzNzkiIHN0eWxlPSJzdHJva2U6IzE4MTgxODtzdHJva2Utd2lkdGg6MC41OyIvPjx0ZXh0IGZpbGw9IiMwMDAwMDAiIGZvbnQtZmFtaWx5PSJzYW5zLXNlcmlmIiBmb250LXNpemU9IjE0IiBsZW5ndGhBZGp1c3Q9InNwYWNpbmciIHRleHRMZW5ndGg9IjE3NiIgeD0iMjIuMTg5NSIgeT0iMTY3LjQ4MDEiPkV4YW1pbmUgYW5kIFRyZWF0IFBhdGllbnQ8L3RleHQ+PC9nPjxnIGlkPSJlbGVtX1ByZXNjcmliZSBNZWRpY2F0aW9uIj48ZWxsaXBzZSBjeD0iMzM3LjIzMDkiIGN5PSIxNjMuNDQ2MiIgZmlsbD0iI0YxRjFGMSIgcng9Ijg3LjczMDkiIHJ5PSIxOS45NDYyIiBzdHlsZT0ic3Ryb2tlOiMxODE4MTg7c3Ryb2tlLXdpZHRoOjAuNTsiLz48dGV4dCBmaWxsPSIjMDAwMDAwIiBmb250LWZhbWlseT0ic2Fucy1zZXJpZiIgZm9udC1zaXplPSIxNCIgbGVuZ3RoQWRqdXN0PSJzcGFjaW5nIiB0ZXh0TGVuZ3RoPSIxNDAiIHg9IjI2Ny4yMzA5IiB5PSIxNjcuMTg4NCI+UHJlc2NyaWJlIE1lZGljYXRpb248L3RleHQ+PC9nPjxnIGlkPSJlbGVtX1VwZGF0ZSBQYXRpZW50IFJlY29yZHMiPjxlbGxpcHNlIGN4PSI1NTQuMDYyMiIgY3k9IjE2My43MTI0IiBmaWxsPSIjRjFGMUYxIiByeD0iOTQuMDYyMiIgcnk9IjIxLjIxMjQiIHN0eWxlPSJzdHJva2U6IzE4MTgxODtzdHJva2Utd2lkdGg6MC41OyIvPjx0ZXh0IGZpbGw9IiMwMDAwMDAiIGZvbnQtZmFtaWx5PSJzYW5zLXNlcmlmIiBmb250LXNpemU9IjE0IiBsZW5ndGhBZGp1c3Q9InNwYWNpbmciIHRleHRMZW5ndGg9IjE1NCIgeD0iNDc3LjA2MjIiIHk9IjE2Ny40NTQ2Ij5VcGRhdGUgUGF0aWVudCBSZWNvcmRzPC90ZXh0PjwvZz48IS0tbGluayBEb2N0b3IgdG8gRXhhbWluZSBhbmQgVHJlYXQgUGF0aWVudC0tPjxnIGlkPSJsaW5rX0RvY3Rvcl9FeGFtaW5lIGFuZCBUcmVhdCBQYXRpZW50Ij48cGF0aCBkPSJNMzE1LjY0LDU1LjE1IEMyNzcuNTcsNzUuMDMgMjAyLjc0OSwxMTQuMDgzNiAxNTQuNTI5LDEzOS4yNTM2ICIgZmlsbD0ibm9uZSIgaWQ9IkRvY3Rvci10by1FeGFtaW5lIGFuZCBUcmVhdCBQYXRpZW50IiBzdHlsZT0ic3Ryb2tlOiMxODE4MTg7c3Ryb2tlLXdpZHRoOjEuMDsiLz48cG9seWdvbiBmaWxsPSIjMTgxODE4IiBwb2ludHM9IjE0OS4yMSwxNDIuMDMsMTU5LjAzOTQsMTQxLjQxMTQsMTUzLjY0MjUsMTM5LjcxNjMsMTU1LjMzNzUsMTM0LjMxOTQsMTQ5LjIxLDE0Mi4wMyIgc3R5bGU9InN0cm9rZTojMTgxODE4O3N0cm9rZS13aWR0aDoxLjA7Ii8+PC9nPjwhLS1saW5rIERvY3RvciB0byBQcmVzY3JpYmUgTWVkaWNhdGlvbi0tPjxnIGlkPSJsaW5rX0RvY3Rvcl9QcmVzY3JpYmUgTWVkaWNhdGlvbiI+PHBhdGggZD0iTTMzNyw4MC41MiBDMzM3LDEwMS4zMyAzMzcsMTIwLjU1IDMzNywxMzcuNDcgIiBmaWxsPSJub25lIiBpZD0iRG9jdG9yLXRvLVByZXNjcmliZSBNZWRpY2F0aW9uIiBzdHlsZT0ic3Ryb2tlOiMxODE4MTg7c3Ryb2tlLXdpZHRoOjEuMDsiLz48cG9seWdvbiBmaWxsPSIjMTgxODE4IiBwb2ludHM9IjMzNywxNDMuNDcsMzQxLDEzNC40NywzMzcsMTM4LjQ3LDMzMywxMzQuNDcsMzM3LDE0My40NyIgc3R5bGU9InN0cm9rZTojMTgxODE4O3N0cm9rZS13aWR0aDoxLjA7Ii8+PC9nPjwhLS1saW5rIERvY3RvciB0byBVcGRhdGUgUGF0aWVudCBSZWNvcmRzLS0+PGcgaWQ9ImxpbmtfRG9jdG9yX1VwZGF0ZSBQYXRpZW50IFJlY29yZHMiPjxwYXRoIGQ9Ik0zNTguMiw1NS41OCBDMzk1Ljg1LDc2LjE0IDQ2OS4zOTQ0LDExNi4yOTM3IDUxNC43MDQ0LDE0MS4wNDM3ICIgZmlsbD0ibm9uZSIgaWQ9IkRvY3Rvci10by1VcGRhdGUgUGF0aWVudCBSZWNvcmRzIiBzdHlsZT0ic3Ryb2tlOiMxODE4MTg7c3Ryb2tlLXdpZHRoOjEuMDsiLz48cG9seWdvbiBmaWxsPSIjMTgxODE4IiBwb2ludHM9IjUxOS45NywxNDMuOTIsNTEzLjk4OTEsMTM2LjA5NTEsNTE1LjU4MiwxNDEuNTIzMSw1MTAuMTU0LDE0My4xMTYsNTE5Ljk3LDE0My45MiIgc3R5bGU9InN0cm9rZTojMTgxODE4O3N0cm9rZS13aWR0aDoxLjA7Ii8+PC9nPjwhLS1TUkM9W0lxbWtvSXpJU0NhN0tMbUdJYTVOcnF2MW14S1lDSlNwQnJLWENJejU4UUdlRFI1NDhJMm45M0NyaHFHSkhMYjBLTWZuU2I1Y0tnZzJSc2ZBUFo5R0lOdVVnZWhHV2ZKNGFiSU9SZU1XckVKeWVmSFlKRzAwXS0tPjwvZz48L3N2Zz4=;" vertex="1" parent="1">
            <mxGeometry x="305" y="583" width="783.43" height="230" as="geometry" />
          </mxCell>
        </UserObject>
        <UserObject label="" plantUmlData="{&#xa;  &quot;data&quot;: &quot;@startuml\nactor Administrator\nAdministrator --&gt; (Manage Users)\nAdministrator --&gt; (Generate Reports)\nAdministrator --&gt; (Update System Settings)\n\n@enduml&quot;,&#xa;  &quot;format&quot;: &quot;svg&quot;&#xa;}" id="pxhKRSdxKXz-_Y6Tn8Q8-46">
          <mxCell style="shape=image;noLabel=1;verticalAlign=top;aspect=fixed;imageAspect=0;image=data:image/svg+xml,PD94bWwgdmVyc2lvbj0iMS4wIiBlbmNvZGluZz0idXMtYXNjaWkiIHN0YW5kYWxvbmU9Im5vIj8+PHN2ZyB4bWxucz0iaHR0cDovL3d3dy53My5vcmcvMjAwMC9zdmciIHhtbG5zOnhsaW5rPSJodHRwOi8vd3d3LnczLm9yZy8xOTk5L3hsaW5rIiBjb250ZW50U3R5bGVUeXBlPSJ0ZXh0L2NzcyIgaGVpZ2h0PSIxODlweCIgcHJlc2VydmVBc3BlY3RSYXRpbz0ibm9uZSIgc3R5bGU9IndpZHRoOjU1MHB4O2hlaWdodDoxODlweDtiYWNrZ3JvdW5kOiNGRkZGRkY7IiB2ZXJzaW9uPSIxLjEiIHZpZXdCb3g9IjAgMCA1NTAgMTg5IiB3aWR0aD0iNTUwcHgiIHpvb21BbmRQYW49Im1hZ25pZnkiPjxkZWZzLz48Zz48IS0tZW50aXR5IEFkbWluaXN0cmF0b3ItLT48ZyBpZD0iZWxlbV9BZG1pbmlzdHJhdG9yIj48ZWxsaXBzZSBjeD0iMjQ1IiBjeT0iMTQiIGZpbGw9IiNGMUYxRjEiIHJ4PSI4IiByeT0iOCIgc3R5bGU9InN0cm9rZTojMTgxODE4O3N0cm9rZS13aWR0aDowLjU7Ii8+PHBhdGggZD0iTTI0NSwyMiBMMjQ1LDQ5IE0yMzIsMzAgTDI1OCwzMCBNMjQ1LDQ5IEwyMzIsNjQgTTI0NSw0OSBMMjU4LDY0ICIgZmlsbD0ibm9uZSIgc3R5bGU9InN0cm9rZTojMTgxODE4O3N0cm9rZS13aWR0aDowLjU7Ii8+PHRleHQgZmlsbD0iIzAwMDAwMCIgZm9udC1mYW1pbHk9InNhbnMtc2VyaWYiIGZvbnQtc2l6ZT0iMTQiIGxlbmd0aEFkanVzdD0ic3BhY2luZyIgdGV4dExlbmd0aD0iOTIiIHg9IjE5OSIgeT0iNzguNzM0NCI+QWRtaW5pc3RyYXRvcjwvdGV4dD48L2c+PGcgaWQ9ImVsZW1fTWFuYWdlIFVzZXJzIj48ZWxsaXBzZSBjeD0iNjkuODg3OCIgY3k9IjE2Mi4xNzc2IiBmaWxsPSIjRjFGMUYxIiByeD0iNjMuODg3OCIgcnk9IjE1LjE3NzYiIHN0eWxlPSJzdHJva2U6IzE4MTgxODtzdHJva2Utd2lkdGg6MC41OyIvPjx0ZXh0IGZpbGw9IiMwMDAwMDAiIGZvbnQtZmFtaWx5PSJzYW5zLXNlcmlmIiBmb250LXNpemU9IjE0IiBsZW5ndGhBZGp1c3Q9InNwYWNpbmciIHRleHRMZW5ndGg9Ijg0IiB4PSIyNy44ODc4IiB5PSIxNjUuOTE5NyI+TWFuYWdlIFVzZXJzPC90ZXh0PjwvZz48ZyBpZD0iZWxlbV9HZW5lcmF0ZSBSZXBvcnRzIj48ZWxsaXBzZSBjeD0iMjQ0LjkzODQiIGN5PSIxNjEuOTg3NyIgZmlsbD0iI0YxRjFGMSIgcng9Ijc1LjQzODQiIHJ5PSIxNy40ODc3IiBzdHlsZT0ic3Ryb2tlOiMxODE4MTg7c3Ryb2tlLXdpZHRoOjAuNTsiLz48dGV4dCBmaWxsPSIjMDAwMDAwIiBmb250LWZhbWlseT0ic2Fucy1zZXJpZiIgZm9udC1zaXplPSIxNCIgbGVuZ3RoQWRqdXN0PSJzcGFjaW5nIiB0ZXh0TGVuZ3RoPSIxMTIiIHg9IjE4OC45Mzg0IiB5PSIxNjUuNzI5OSI+R2VuZXJhdGUgUmVwb3J0czwvdGV4dD48L2c+PGcgaWQ9ImVsZW1fVXBkYXRlIFN5c3RlbSBTZXR0aW5ncyI+PGVsbGlwc2UgY3g9IjQ1MC4wMTgyIiBjeT0iMTYxLjgwMzYiIGZpbGw9IiNGMUYxRjEiIHJ4PSI5NC41MTgyIiByeT0iMjEuMzAzNiIgc3R5bGU9InN0cm9rZTojMTgxODE4O3N0cm9rZS13aWR0aDowLjU7Ii8+PHRleHQgZmlsbD0iIzAwMDAwMCIgZm9udC1mYW1pbHk9InNhbnMtc2VyaWYiIGZvbnQtc2l6ZT0iMTQiIGxlbmd0aEFkanVzdD0ic3BhY2luZyIgdGV4dExlbmd0aD0iMTU1IiB4PSIzNzIuNTE4MiIgeT0iMTY1LjU0NTgiPlVwZGF0ZSBTeXN0ZW0gU2V0dGluZ3M8L3RleHQ+PC9nPjwhLS1saW5rIEFkbWluaXN0cmF0b3IgdG8gTWFuYWdlIFVzZXJzLS0+PGcgaWQ9ImxpbmtfQWRtaW5pc3RyYXRvcl9NYW5hZ2UgVXNlcnMiPjxwYXRoIGQ9Ik0xOTguNTYsNzUuMDUgQzE2My4zMiw5OC42MSAxMjEuNTg4NSwxMjYuNTE2MSA5NS4yNjg1LDE0NC4xMDYxICIgZmlsbD0ibm9uZSIgaWQ9IkFkbWluaXN0cmF0b3ItdG8tTWFuYWdlIFVzZXJzIiBzdHlsZT0ic3Ryb2tlOiMxODE4MTg7c3Ryb2tlLXdpZHRoOjEuMDsiLz48cG9seWdvbiBmaWxsPSIjMTgxODE4IiBwb2ludHM9IjkwLjI4LDE0Ny40NCw5OS45ODU0LDE0NS43NjQ4LDk0LjQzNzEsMTQ0LjY2MTgsOTUuNTQwMiwxMzkuMTEzNSw5MC4yOCwxNDcuNDQiIHN0eWxlPSJzdHJva2U6IzE4MTgxODtzdHJva2Utd2lkdGg6MS4wOyIvPjwvZz48IS0tbGluayBBZG1pbmlzdHJhdG9yIHRvIEdlbmVyYXRlIFJlcG9ydHMtLT48ZyBpZD0ibGlua19BZG1pbmlzdHJhdG9yX0dlbmVyYXRlIFJlcG9ydHMiPjxwYXRoIGQ9Ik0yNDUsODAuNyBDMjQ1LDEwMi4wMSAyNDUsMTIxLjgzIDI0NSwxMzguMzMgIiBmaWxsPSJub25lIiBpZD0iQWRtaW5pc3RyYXRvci10by1HZW5lcmF0ZSBSZXBvcnRzIiBzdHlsZT0ic3Ryb2tlOiMxODE4MTg7c3Ryb2tlLXdpZHRoOjEuMDsiLz48cG9seWdvbiBmaWxsPSIjMTgxODE4IiBwb2ludHM9IjI0NSwxNDQuMzMsMjQ5LDEzNS4zMywyNDUsMTM5LjMzLDI0MSwxMzUuMzMsMjQ1LDE0NC4zMyIgc3R5bGU9InN0cm9rZTojMTgxODE4O3N0cm9rZS13aWR0aDoxLjA7Ii8+PC9nPjwhLS1saW5rIEFkbWluaXN0cmF0b3IgdG8gVXBkYXRlIFN5c3RlbSBTZXR0aW5ncy0tPjxnIGlkPSJsaW5rX0FkbWluaXN0cmF0b3JfVXBkYXRlIFN5c3RlbSBTZXR0aW5ncyI+PHBhdGggZD0iTTI5MS4wMSw3MC4yNiBDMzI5LjAyLDkxLjk1IDM3Ni44ODg5LDExOS4yNzYxIDQxMS4wNTg5LDEzOC43NzYxICIgZmlsbD0ibm9uZSIgaWQ9IkFkbWluaXN0cmF0b3ItdG8tVXBkYXRlIFN5c3RlbSBTZXR0aW5ncyIgc3R5bGU9InN0cm9rZTojMTgxODE4O3N0cm9rZS13aWR0aDoxLjA7Ii8+PHBvbHlnb24gZmlsbD0iIzE4MTgxOCIgcG9pbnRzPSI0MTYuMjcsMTQxLjc1LDQxMC40MzU5LDEzMy44MTUxLDQxMS45Mjc0LDEzOS4yNzE4LDQwNi40NzA3LDE0MC43NjMzLDQxNi4yNywxNDEuNzUiIHN0eWxlPSJzdHJva2U6IzE4MTgxODtzdHJva2Utd2lkdGg6MS4wOyIvPjwvZz48IS0tU1JDPVtJcW1rb0l6SVM0cDlwU3BCQjJ1ZklXSm9rNTF1Mmhnd1RXZVFsZWJ2WVVjZjJnNzVnS041Y2pXS2tBVmNmR0F2Z0dmMWdHTnZISU5PNU9LTWY4MksxNVNNYndKY0FXSWRiZkhhdmdLTlFtODBdLS0+PC9nPjwvc3ZnPg==;" vertex="1" parent="1">
            <mxGeometry x="305" y="844" width="788.62" height="271" as="geometry" />
          </mxCell>
        </UserObject>
      </root>
    </mxGraphModel>
  </diagram>
  <diagram id="yTh8SUZBnuwoOlrUhcKR" name="Class">
    <mxGraphModel dx="1249" dy="643" grid="0" gridSize="10" guides="1" tooltips="1" connect="1" arrows="1" fold="1" page="0" pageScale="1" pageWidth="827" pageHeight="1169" math="0" shadow="0">
      <root>
        <mxCell id="0" />
        <mxCell id="1" parent="0" />
        <mxCell id="cD9EbqqH73I_BOwI03p6-1" value="Patient" style="swimlane;fontStyle=1;align=center;verticalAlign=top;childLayout=stackLayout;horizontal=1;startSize=26.25714329310826;horizontalStack=0;resizeParent=1;resizeParentMax=0;resizeLast=0;collapsible=0;marginBottom=0;" vertex="1" parent="1">
          <mxGeometry x="20" y="291" width="170" height="190.25714329310824" as="geometry" />
        </mxCell>
        <mxCell id="cD9EbqqH73I_BOwI03p6-2" value="+String ID" style="text;strokeColor=none;fillColor=none;align=left;verticalAlign=top;spacingLeft=4;spacingRight=4;overflow=hidden;rotatable=0;points=[[0,0.5],[1,0.5]];portConstraint=eastwest;" vertex="1" parent="cD9EbqqH73I_BOwI03p6-1">
          <mxGeometry y="26.25714329310826" width="170" height="26" as="geometry" />
        </mxCell>
        <mxCell id="cD9EbqqH73I_BOwI03p6-3" value="+String Name" style="text;strokeColor=none;fillColor=none;align=left;verticalAlign=top;spacingLeft=4;spacingRight=4;overflow=hidden;rotatable=0;points=[[0,0.5],[1,0.5]];portConstraint=eastwest;" vertex="1" parent="cD9EbqqH73I_BOwI03p6-1">
          <mxGeometry y="52.25714329310826" width="170" height="26" as="geometry" />
        </mxCell>
        <mxCell id="cD9EbqqH73I_BOwI03p6-4" value="+Date DOB" style="text;strokeColor=none;fillColor=none;align=left;verticalAlign=top;spacingLeft=4;spacingRight=4;overflow=hidden;rotatable=0;points=[[0,0.5],[1,0.5]];portConstraint=eastwest;" vertex="1" parent="cD9EbqqH73I_BOwI03p6-1">
          <mxGeometry y="78.25714329310826" width="170" height="26" as="geometry" />
        </mxCell>
        <mxCell id="cD9EbqqH73I_BOwI03p6-5" value="+String Address" style="text;strokeColor=none;fillColor=none;align=left;verticalAlign=top;spacingLeft=4;spacingRight=4;overflow=hidden;rotatable=0;points=[[0,0.5],[1,0.5]];portConstraint=eastwest;" vertex="1" parent="cD9EbqqH73I_BOwI03p6-1">
          <mxGeometry y="104.25714329310826" width="170" height="26" as="geometry" />
        </mxCell>
        <mxCell id="cD9EbqqH73I_BOwI03p6-6" value="+String PhoneNumber" style="text;strokeColor=none;fillColor=none;align=left;verticalAlign=top;spacingLeft=4;spacingRight=4;overflow=hidden;rotatable=0;points=[[0,0.5],[1,0.5]];portConstraint=eastwest;" vertex="1" parent="cD9EbqqH73I_BOwI03p6-1">
          <mxGeometry y="130.25714329310824" width="170" height="26" as="geometry" />
        </mxCell>
        <mxCell id="cD9EbqqH73I_BOwI03p6-7" style="line;strokeWidth=1;fillColor=none;align=left;verticalAlign=middle;spacingTop=-1;spacingLeft=3;spacingRight=3;rotatable=0;labelPosition=right;points=[];portConstraint=eastwest;strokeColor=inherit;" vertex="1" parent="cD9EbqqH73I_BOwI03p6-1">
          <mxGeometry y="156.25714329310824" width="170" height="8" as="geometry" />
        </mxCell>
        <mxCell id="cD9EbqqH73I_BOwI03p6-8" value="+viewHistory()" style="text;strokeColor=none;fillColor=none;align=left;verticalAlign=top;spacingLeft=4;spacingRight=4;overflow=hidden;rotatable=0;points=[[0,0.5],[1,0.5]];portConstraint=eastwest;" vertex="1" parent="cD9EbqqH73I_BOwI03p6-1">
          <mxGeometry y="164.25714329310824" width="170" height="26" as="geometry" />
        </mxCell>
        <mxCell id="cD9EbqqH73I_BOwI03p6-9" value="Doctor" style="swimlane;fontStyle=1;align=center;verticalAlign=top;childLayout=stackLayout;horizontal=1;startSize=25.774999618530273;horizontalStack=0;resizeParent=1;resizeParentMax=0;resizeLast=0;collapsible=0;marginBottom=0;" vertex="1" parent="1">
          <mxGeometry x="240" y="280" width="180" height="215.77499961853027" as="geometry" />
        </mxCell>
        <mxCell id="cD9EbqqH73I_BOwI03p6-10" value="+String ID" style="text;strokeColor=none;fillColor=none;align=left;verticalAlign=top;spacingLeft=4;spacingRight=4;overflow=hidden;rotatable=0;points=[[0,0.5],[1,0.5]];portConstraint=eastwest;" vertex="1" parent="cD9EbqqH73I_BOwI03p6-9">
          <mxGeometry y="25.774999618530273" width="180" height="26" as="geometry" />
        </mxCell>
        <mxCell id="cD9EbqqH73I_BOwI03p6-11" value="+String Name" style="text;strokeColor=none;fillColor=none;align=left;verticalAlign=top;spacingLeft=4;spacingRight=4;overflow=hidden;rotatable=0;points=[[0,0.5],[1,0.5]];portConstraint=eastwest;" vertex="1" parent="cD9EbqqH73I_BOwI03p6-9">
          <mxGeometry y="51.77499961853027" width="180" height="26" as="geometry" />
        </mxCell>
        <mxCell id="cD9EbqqH73I_BOwI03p6-12" value="+String Specialty" style="text;strokeColor=none;fillColor=none;align=left;verticalAlign=top;spacingLeft=4;spacingRight=4;overflow=hidden;rotatable=0;points=[[0,0.5],[1,0.5]];portConstraint=eastwest;" vertex="1" parent="cD9EbqqH73I_BOwI03p6-9">
          <mxGeometry y="77.77499961853027" width="180" height="26" as="geometry" />
        </mxCell>
        <mxCell id="cD9EbqqH73I_BOwI03p6-13" value="+int Experience" style="text;strokeColor=none;fillColor=none;align=left;verticalAlign=top;spacingLeft=4;spacingRight=4;overflow=hidden;rotatable=0;points=[[0,0.5],[1,0.5]];portConstraint=eastwest;" vertex="1" parent="cD9EbqqH73I_BOwI03p6-9">
          <mxGeometry y="103.77499961853027" width="180" height="26" as="geometry" />
        </mxCell>
        <mxCell id="cD9EbqqH73I_BOwI03p6-14" value="+String Qualification" style="text;strokeColor=none;fillColor=none;align=left;verticalAlign=top;spacingLeft=4;spacingRight=4;overflow=hidden;rotatable=0;points=[[0,0.5],[1,0.5]];portConstraint=eastwest;" vertex="1" parent="cD9EbqqH73I_BOwI03p6-9">
          <mxGeometry y="129.77499961853027" width="180" height="26" as="geometry" />
        </mxCell>
        <mxCell id="cD9EbqqH73I_BOwI03p6-15" style="line;strokeWidth=1;fillColor=none;align=left;verticalAlign=middle;spacingTop=-1;spacingLeft=3;spacingRight=3;rotatable=0;labelPosition=right;points=[];portConstraint=eastwest;strokeColor=inherit;" vertex="1" parent="cD9EbqqH73I_BOwI03p6-9">
          <mxGeometry y="155.77499961853027" width="180" height="8" as="geometry" />
        </mxCell>
        <mxCell id="cD9EbqqH73I_BOwI03p6-16" value="+examinePatient()" style="text;strokeColor=none;fillColor=none;align=left;verticalAlign=top;spacingLeft=4;spacingRight=4;overflow=hidden;rotatable=0;points=[[0,0.5],[1,0.5]];portConstraint=eastwest;" vertex="1" parent="cD9EbqqH73I_BOwI03p6-9">
          <mxGeometry y="163.77499961853027" width="180" height="26" as="geometry" />
        </mxCell>
        <mxCell id="cD9EbqqH73I_BOwI03p6-17" value="+prescribeMedication()" style="text;strokeColor=none;fillColor=none;align=left;verticalAlign=top;spacingLeft=4;spacingRight=4;overflow=hidden;rotatable=0;points=[[0,0.5],[1,0.5]];portConstraint=eastwest;" vertex="1" parent="cD9EbqqH73I_BOwI03p6-9">
          <mxGeometry y="189.77499961853027" width="180" height="26" as="geometry" />
        </mxCell>
        <mxCell id="cD9EbqqH73I_BOwI03p6-18" value="Nurse" style="swimlane;fontStyle=1;align=center;verticalAlign=top;childLayout=stackLayout;horizontal=1;startSize=26.25714329310826;horizontalStack=0;resizeParent=1;resizeParentMax=0;resizeLast=0;collapsible=0;marginBottom=0;" vertex="1" parent="1">
          <mxGeometry x="25" y="20" width="160" height="190.25714329310824" as="geometry" />
        </mxCell>
        <mxCell id="cD9EbqqH73I_BOwI03p6-19" value="+String ID" style="text;strokeColor=none;fillColor=none;align=left;verticalAlign=top;spacingLeft=4;spacingRight=4;overflow=hidden;rotatable=0;points=[[0,0.5],[1,0.5]];portConstraint=eastwest;" vertex="1" parent="cD9EbqqH73I_BOwI03p6-18">
          <mxGeometry y="26.25714329310826" width="160" height="26" as="geometry" />
        </mxCell>
        <mxCell id="cD9EbqqH73I_BOwI03p6-20" value="+String Name" style="text;strokeColor=none;fillColor=none;align=left;verticalAlign=top;spacingLeft=4;spacingRight=4;overflow=hidden;rotatable=0;points=[[0,0.5],[1,0.5]];portConstraint=eastwest;" vertex="1" parent="cD9EbqqH73I_BOwI03p6-18">
          <mxGeometry y="52.25714329310826" width="160" height="26" as="geometry" />
        </mxCell>
        <mxCell id="cD9EbqqH73I_BOwI03p6-21" value="+int Experience" style="text;strokeColor=none;fillColor=none;align=left;verticalAlign=top;spacingLeft=4;spacingRight=4;overflow=hidden;rotatable=0;points=[[0,0.5],[1,0.5]];portConstraint=eastwest;" vertex="1" parent="cD9EbqqH73I_BOwI03p6-18">
          <mxGeometry y="78.25714329310826" width="160" height="26" as="geometry" />
        </mxCell>
        <mxCell id="cD9EbqqH73I_BOwI03p6-22" value="+String Certification" style="text;strokeColor=none;fillColor=none;align=left;verticalAlign=top;spacingLeft=4;spacingRight=4;overflow=hidden;rotatable=0;points=[[0,0.5],[1,0.5]];portConstraint=eastwest;" vertex="1" parent="cD9EbqqH73I_BOwI03p6-18">
          <mxGeometry y="104.25714329310826" width="160" height="26" as="geometry" />
        </mxCell>
        <mxCell id="cD9EbqqH73I_BOwI03p6-23" style="line;strokeWidth=1;fillColor=none;align=left;verticalAlign=middle;spacingTop=-1;spacingLeft=3;spacingRight=3;rotatable=0;labelPosition=right;points=[];portConstraint=eastwest;strokeColor=inherit;" vertex="1" parent="cD9EbqqH73I_BOwI03p6-18">
          <mxGeometry y="130.25714329310824" width="160" height="8" as="geometry" />
        </mxCell>
        <mxCell id="cD9EbqqH73I_BOwI03p6-24" value="+provideCare()" style="text;strokeColor=none;fillColor=none;align=left;verticalAlign=top;spacingLeft=4;spacingRight=4;overflow=hidden;rotatable=0;points=[[0,0.5],[1,0.5]];portConstraint=eastwest;" vertex="1" parent="cD9EbqqH73I_BOwI03p6-18">
          <mxGeometry y="138.25714329310824" width="160" height="26" as="geometry" />
        </mxCell>
        <mxCell id="cD9EbqqH73I_BOwI03p6-25" value="+assistDoctor()" style="text;strokeColor=none;fillColor=none;align=left;verticalAlign=top;spacingLeft=4;spacingRight=4;overflow=hidden;rotatable=0;points=[[0,0.5],[1,0.5]];portConstraint=eastwest;" vertex="1" parent="cD9EbqqH73I_BOwI03p6-18">
          <mxGeometry y="164.25714329310824" width="160" height="26" as="geometry" />
        </mxCell>
        <mxCell id="cD9EbqqH73I_BOwI03p6-26" value="Visit" style="swimlane;fontStyle=1;align=center;verticalAlign=top;childLayout=stackLayout;horizontal=1;startSize=25.774999618530273;horizontalStack=0;resizeParent=1;resizeParentMax=0;resizeLast=0;collapsible=0;marginBottom=0;" vertex="1" parent="1">
          <mxGeometry x="135" y="563" width="165" height="215.77499961853027" as="geometry" />
        </mxCell>
        <mxCell id="cD9EbqqH73I_BOwI03p6-27" value="+String VisitID" style="text;strokeColor=none;fillColor=none;align=left;verticalAlign=top;spacingLeft=4;spacingRight=4;overflow=hidden;rotatable=0;points=[[0,0.5],[1,0.5]];portConstraint=eastwest;" vertex="1" parent="cD9EbqqH73I_BOwI03p6-26">
          <mxGeometry y="25.774999618530273" width="165" height="26" as="geometry" />
        </mxCell>
        <mxCell id="cD9EbqqH73I_BOwI03p6-28" value="+Date AdmissionDate" style="text;strokeColor=none;fillColor=none;align=left;verticalAlign=top;spacingLeft=4;spacingRight=4;overflow=hidden;rotatable=0;points=[[0,0.5],[1,0.5]];portConstraint=eastwest;" vertex="1" parent="cD9EbqqH73I_BOwI03p6-26">
          <mxGeometry y="51.77499961853027" width="165" height="26" as="geometry" />
        </mxCell>
        <mxCell id="cD9EbqqH73I_BOwI03p6-29" value="+Date DischargeDate" style="text;strokeColor=none;fillColor=none;align=left;verticalAlign=top;spacingLeft=4;spacingRight=4;overflow=hidden;rotatable=0;points=[[0,0.5],[1,0.5]];portConstraint=eastwest;" vertex="1" parent="cD9EbqqH73I_BOwI03p6-26">
          <mxGeometry y="77.77499961853027" width="165" height="26" as="geometry" />
        </mxCell>
        <mxCell id="cD9EbqqH73I_BOwI03p6-30" value="+String Diagnosis" style="text;strokeColor=none;fillColor=none;align=left;verticalAlign=top;spacingLeft=4;spacingRight=4;overflow=hidden;rotatable=0;points=[[0,0.5],[1,0.5]];portConstraint=eastwest;" vertex="1" parent="cD9EbqqH73I_BOwI03p6-26">
          <mxGeometry y="103.77499961853027" width="165" height="26" as="geometry" />
        </mxCell>
        <mxCell id="cD9EbqqH73I_BOwI03p6-31" value="+float TotalCost" style="text;strokeColor=none;fillColor=none;align=left;verticalAlign=top;spacingLeft=4;spacingRight=4;overflow=hidden;rotatable=0;points=[[0,0.5],[1,0.5]];portConstraint=eastwest;" vertex="1" parent="cD9EbqqH73I_BOwI03p6-26">
          <mxGeometry y="129.77499961853027" width="165" height="26" as="geometry" />
        </mxCell>
        <mxCell id="cD9EbqqH73I_BOwI03p6-32" style="line;strokeWidth=1;fillColor=none;align=left;verticalAlign=middle;spacingTop=-1;spacingLeft=3;spacingRight=3;rotatable=0;labelPosition=right;points=[];portConstraint=eastwest;strokeColor=inherit;" vertex="1" parent="cD9EbqqH73I_BOwI03p6-26">
          <mxGeometry y="155.77499961853027" width="165" height="8" as="geometry" />
        </mxCell>
        <mxCell id="cD9EbqqH73I_BOwI03p6-33" value="+linkDoctor()" style="text;strokeColor=none;fillColor=none;align=left;verticalAlign=top;spacingLeft=4;spacingRight=4;overflow=hidden;rotatable=0;points=[[0,0.5],[1,0.5]];portConstraint=eastwest;" vertex="1" parent="cD9EbqqH73I_BOwI03p6-26">
          <mxGeometry y="163.77499961853027" width="165" height="26" as="geometry" />
        </mxCell>
        <mxCell id="cD9EbqqH73I_BOwI03p6-34" value="+linkPatient()" style="text;strokeColor=none;fillColor=none;align=left;verticalAlign=top;spacingLeft=4;spacingRight=4;overflow=hidden;rotatable=0;points=[[0,0.5],[1,0.5]];portConstraint=eastwest;" vertex="1" parent="cD9EbqqH73I_BOwI03p6-26">
          <mxGeometry y="189.77499961853027" width="165" height="26" as="geometry" />
        </mxCell>
        <mxCell id="cD9EbqqH73I_BOwI03p6-35" value="Prescription" style="swimlane;fontStyle=1;align=center;verticalAlign=top;childLayout=stackLayout;horizontal=1;startSize=26.899998982747395;horizontalStack=0;resizeParent=1;resizeParentMax=0;resizeLast=0;collapsible=0;marginBottom=0;" vertex="1" parent="1">
          <mxGeometry x="133" y="845" width="170" height="169.89999898274738" as="geometry" />
        </mxCell>
        <mxCell id="cD9EbqqH73I_BOwI03p6-36" value="+String PrescriptionID" style="text;strokeColor=none;fillColor=none;align=left;verticalAlign=top;spacingLeft=4;spacingRight=4;overflow=hidden;rotatable=0;points=[[0,0.5],[1,0.5]];portConstraint=eastwest;" vertex="1" parent="cD9EbqqH73I_BOwI03p6-35">
          <mxGeometry y="26.899998982747395" width="170" height="27" as="geometry" />
        </mxCell>
        <mxCell id="cD9EbqqH73I_BOwI03p6-37" value="+String VisitID" style="text;strokeColor=none;fillColor=none;align=left;verticalAlign=top;spacingLeft=4;spacingRight=4;overflow=hidden;rotatable=0;points=[[0,0.5],[1,0.5]];portConstraint=eastwest;" vertex="1" parent="cD9EbqqH73I_BOwI03p6-35">
          <mxGeometry y="53.89999898274739" width="170" height="27" as="geometry" />
        </mxCell>
        <mxCell id="cD9EbqqH73I_BOwI03p6-38" value="+String[] Medications" style="text;strokeColor=none;fillColor=none;align=left;verticalAlign=top;spacingLeft=4;spacingRight=4;overflow=hidden;rotatable=0;points=[[0,0.5],[1,0.5]];portConstraint=eastwest;" vertex="1" parent="cD9EbqqH73I_BOwI03p6-35">
          <mxGeometry y="80.89999898274739" width="170" height="27" as="geometry" />
        </mxCell>
        <mxCell id="cD9EbqqH73I_BOwI03p6-39" value="+float[] Prices" style="text;strokeColor=none;fillColor=none;align=left;verticalAlign=top;spacingLeft=4;spacingRight=4;overflow=hidden;rotatable=0;points=[[0,0.5],[1,0.5]];portConstraint=eastwest;" vertex="1" parent="cD9EbqqH73I_BOwI03p6-35">
          <mxGeometry y="107.89999898274739" width="170" height="27" as="geometry" />
        </mxCell>
        <mxCell id="cD9EbqqH73I_BOwI03p6-40" style="line;strokeWidth=1;fillColor=none;align=left;verticalAlign=middle;spacingTop=-1;spacingLeft=3;spacingRight=3;rotatable=0;labelPosition=right;points=[];portConstraint=eastwest;strokeColor=inherit;" vertex="1" parent="cD9EbqqH73I_BOwI03p6-35">
          <mxGeometry y="134.89999898274738" width="170" height="8" as="geometry" />
        </mxCell>
        <mxCell id="cD9EbqqH73I_BOwI03p6-41" value="+linkVisit()" style="text;strokeColor=none;fillColor=none;align=left;verticalAlign=top;spacingLeft=4;spacingRight=4;overflow=hidden;rotatable=0;points=[[0,0.5],[1,0.5]];portConstraint=eastwest;" vertex="1" parent="cD9EbqqH73I_BOwI03p6-35">
          <mxGeometry y="142.89999898274738" width="170" height="27" as="geometry" />
        </mxCell>
        <mxCell id="cD9EbqqH73I_BOwI03p6-42" value="has" style="curved=1;startArrow=none;endArrow=open;endSize=12;exitX=0.5;exitY=1;entryX=0;entryY=0.02;rounded=0;fontSize=12;" edge="1" parent="1" source="cD9EbqqH73I_BOwI03p6-1" target="cD9EbqqH73I_BOwI03p6-26">
          <mxGeometry relative="1" as="geometry">
            <Array as="points">
              <mxPoint x="105" y="529" />
            </Array>
          </mxGeometry>
        </mxCell>
        <mxCell id="cD9EbqqH73I_BOwI03p6-43" value="1" style="edgeLabel;resizable=0;labelBackgroundColor=none;fontSize=12;align=right;verticalAlign=top;" vertex="1" parent="cD9EbqqH73I_BOwI03p6-42">
          <mxGeometry x="-1" relative="1" as="geometry" />
        </mxCell>
        <mxCell id="cD9EbqqH73I_BOwI03p6-44" value="0..*" style="edgeLabel;resizable=0;labelBackgroundColor=none;fontSize=12;align=left;verticalAlign=bottom;" vertex="1" parent="cD9EbqqH73I_BOwI03p6-42">
          <mxGeometry x="1" relative="1" as="geometry" />
        </mxCell>
        <mxCell id="cD9EbqqH73I_BOwI03p6-45" value="supervises" style="curved=1;startArrow=none;endArrow=open;endSize=12;exitX=0.5;exitY=1;entryX=1;entryY=0.02;rounded=0;fontSize=12;" edge="1" parent="1" source="cD9EbqqH73I_BOwI03p6-9" target="cD9EbqqH73I_BOwI03p6-26">
          <mxGeometry relative="1" as="geometry">
            <Array as="points">
              <mxPoint x="330" y="529" />
            </Array>
          </mxGeometry>
        </mxCell>
        <mxCell id="cD9EbqqH73I_BOwI03p6-46" value="1" style="edgeLabel;resizable=0;labelBackgroundColor=none;fontSize=12;align=right;verticalAlign=top;" vertex="1" parent="cD9EbqqH73I_BOwI03p6-45">
          <mxGeometry x="-1" relative="1" as="geometry" />
        </mxCell>
        <mxCell id="cD9EbqqH73I_BOwI03p6-47" value="0..*" style="edgeLabel;resizable=0;labelBackgroundColor=none;fontSize=12;align=left;verticalAlign=bottom;" vertex="1" parent="cD9EbqqH73I_BOwI03p6-45">
          <mxGeometry x="1" relative="1" as="geometry" />
        </mxCell>
        <mxCell id="cD9EbqqH73I_BOwI03p6-48" value="linked_to" style="curved=1;startArrow=none;endArrow=open;endSize=12;exitX=0.5;exitY=1;entryX=0.5;entryY=0;rounded=0;fontSize=12;" edge="1" parent="1" source="cD9EbqqH73I_BOwI03p6-26" target="cD9EbqqH73I_BOwI03p6-35">
          <mxGeometry relative="1" as="geometry">
            <Array as="points" />
          </mxGeometry>
        </mxCell>
        <mxCell id="cD9EbqqH73I_BOwI03p6-49" value="1" style="edgeLabel;resizable=0;labelBackgroundColor=none;fontSize=12;align=right;verticalAlign=top;" vertex="1" parent="cD9EbqqH73I_BOwI03p6-48">
          <mxGeometry x="-1" relative="1" as="geometry" />
        </mxCell>
        <mxCell id="cD9EbqqH73I_BOwI03p6-50" value="1" style="edgeLabel;resizable=0;labelBackgroundColor=none;fontSize=12;align=left;verticalAlign=bottom;" vertex="1" parent="cD9EbqqH73I_BOwI03p6-48">
          <mxGeometry x="1" relative="1" as="geometry" />
        </mxCell>
        <mxCell id="cD9EbqqH73I_BOwI03p6-51" value="cares_for" style="curved=1;startArrow=none;endArrow=open;endSize=12;exitX=0.5;exitY=1;entryX=0.5;entryY=0;rounded=0;fontSize=12;" edge="1" parent="1" source="cD9EbqqH73I_BOwI03p6-18" target="cD9EbqqH73I_BOwI03p6-1">
          <mxGeometry relative="1" as="geometry">
            <Array as="points" />
          </mxGeometry>
        </mxCell>
        <mxCell id="cD9EbqqH73I_BOwI03p6-52" value="1" style="edgeLabel;resizable=0;labelBackgroundColor=none;fontSize=12;align=right;verticalAlign=top;" vertex="1" parent="cD9EbqqH73I_BOwI03p6-51">
          <mxGeometry x="-1" relative="1" as="geometry" />
        </mxCell>
        <mxCell id="cD9EbqqH73I_BOwI03p6-53" value="0..*" style="edgeLabel;resizable=0;labelBackgroundColor=none;fontSize=12;align=left;verticalAlign=bottom;" vertex="1" parent="cD9EbqqH73I_BOwI03p6-51">
          <mxGeometry x="1" relative="1" as="geometry" />
        </mxCell>
      </root>
    </mxGraphModel>
  </diagram>
</mxfile>
